<svg xmlns="http://www.w3.org/2000/svg" xmlns:xlink="http://www.w3.org/1999/xlink" width="113.11" height="97.535" viewBox="0 0 113.11 97.535">
  <defs>
    <linearGradient id="linear-gradient" x1="0.33" y1="0.84" x2="0.267" y2="0.951" gradientUnits="objectBoundingBox">
      <stop offset="0" stop-color="#fff"/>
      <stop offset="1" stop-color="#f6f6f6"/>
    </linearGradient>
    <filter id="Tracé_5" x="0" y="11.912" width="84.795" height="84.795" filterUnits="userSpaceOnUse">
      <feOffset input="SourceAlpha"/>
      <feGaussianBlur stdDeviation="1" result="blur"/>
      <feFlood flood-opacity="0.161"/>
      <feComposite operator="in" in2="blur"/>
      <feComposite in="SourceGraphic"/>
    </filter>
    <linearGradient id="linear-gradient-2" x1="0.561" y1="0.499" x2="0.142" y2="0.505" gradientUnits="objectBoundingBox">
      <stop offset="0" stop-color="#fff49f"/>
      <stop offset="0.23" stop-color="#ffe30b"/>
      <stop offset="0.906" stop-color="#ffe30b"/>
      <stop offset="1" stop-color="#ffe30b"/>
    </linearGradient>
    <filter id="Tracé_8" x="10.439" y="50.782" width="46.319" height="46.753" filterUnits="userSpaceOnUse">
      <feOffset dy="2" input="SourceAlpha"/>
      <feGaussianBlur result="blur-2"/>
      <feFlood flood-opacity="0.161"/>
      <feComposite operator="in" in2="blur-2"/>
      <feComposite in="SourceGraphic"/>
    </filter>
  </defs>
  <g id="Groupe_3" data-name="Groupe 3" transform="translate(3)">
    <g id="Tracé_6" data-name="Tracé 6" transform="translate(79.813 49.583) rotate(39)" fill="#ff7474">
      <path d="M 5.665965557098389 7.623098373413086 C 5.665863513946533 7.623098373413086 5.665868759155273 7.623098373413086 5.665766716003418 7.623098373413086 C 3.377196788787842 7.622868061065674 1.557766795158386 3.923978328704834 0.9598867297172546 2.70848822593689 C 0.8728667497634888 2.531588315963745 0.8099967837333679 2.403768301010132 0.7611367702484131 2.315908193588257 C 0.509806752204895 1.870018243789673 0.4401167631149292 1.486448287963867 0.5525767803192139 1.173338294029236 C 0.6834890246391296 0.8088211417198181 1.040079712867737 0.5880875587463379 1.200111746788025 0.5046893358230591 C 3.228440046310425 0.5991494655609131 8.27952766418457 1.25321626663208 9.169306755065918 3.259628295898438 C 9.506793975830078 4.020637989044189 9.193498611450195 4.984577178955078 8.238157272338867 6.124712944030762 C 7.367016792297363 7.118875503540039 6.501508235931396 7.623098373413086 5.665965557098389 7.623098373413086 Z" stroke="none"/>
      <path d="M 5.665976524353027 8.123098373413086 L 5.665976524353027 7.123098373413086 C 6.350086688995361 7.123098373413086 7.08768892288208 6.677761077880859 7.858389377593994 5.799433708190918 C 8.678170204162598 4.819889068603516 8.965469360351562 4.033685207366943 8.712327003479004 3.462538242340088 C 8.355556488037109 2.657578229904175 6.899996757507324 1.93077826499939 4.718886852264404 1.468498229980469 C 3.265240907669067 1.160395860671997 1.8762366771698 1.048327922821045 1.318759083747864 1.013268947601318 C 1.210559964179993 1.085901498794556 1.073488235473633 1.202175140380859 1.023146748542786 1.34233832359314 C 0.9469667673110962 1.554438233375549 1.074716806411743 1.853958249092102 1.195296764373779 2.067868232727051 L 1.198116779327393 2.072908163070679 C 1.253096699714661 2.171778202056885 1.318296790122986 2.304338216781616 1.408546805381775 2.487808227539062 C 1.731116771697998 3.143598318099976 2.331546783447266 4.364258289337158 3.149606704711914 5.414078235626221 C 4.250216960906982 6.826498508453369 5.12541675567627 7.123048305511475 5.665816783905029 7.123098373413086 L 5.665976524353027 8.123098373413086 M 5.665718078613281 8.123098373413086 C 2.744018316268921 8.122808456420898 0.7120534181594849 3.256447553634644 0.3241567611694336 2.558908224105835 C -0.7223332524299622 0.7023582458496094 1.099836707115173 -1.725769038785074e-06 1.099836707115173 -1.725769038785074e-06 C 1.099836707115173 -1.725769038785074e-06 13.63468647003174 0.4704082608222961 8.617696762084961 6.450258255004883 C 7.563022136688232 7.655373096466064 6.57171106338501 8.123188018798828 5.665718078613281 8.123098373413086 Z" stroke="none" fill="#fc4f4f"/>
    </g>
    <g transform="matrix(1, 0, 0, 1, -3, 0)" filter="url(#Tracé_5)">
      <path id="Tracé_5-2" data-name="Tracé 5" d="M39.4,0A39.364,39.364,0,1,0,75.8,24.314,39.4,39.4,0,0,0,39.4,0Z" transform="translate(3 14.91)" fill="url(#linear-gradient)"/>
    </g>
    <g id="Tracé_3" data-name="Tracé 3" transform="matrix(-0.999, -0.035, 0.035, -0.999, 65.019, 32.977)" fill="#ff7474">
      <path d="M 14.02318286895752 30.39931106567383 C 14.0228443145752 30.39931106567383 14.0228214263916 30.39931106567383 14.02248287200928 30.39931106567383 C 13.26362228393555 30.39927101135254 12.47599315643311 30.33415985107422 11.68148231506348 30.20580101013184 C 9.346932411193848 29.82862091064453 7.309722900390625 28.49068069458008 5.626442909240723 26.22915077209473 C 4.251012802124023 24.38121032714844 3.106292724609375 21.91976165771484 2.224092721939087 18.91316032409668 C 1.119143486022949 15.147385597229 0.7094272971153259 11.46232986450195 0.5680162310600281 9.728394508361816 C 1.389319896697998 10.28914928436279 2.744786739349365 11.17878913879395 4.412522792816162 12.13961124420166 C 6.982582569122314 13.62027072906494 10.84757232666016 15.58176040649414 14.66526317596436 16.51773071289062 L 14.68466281890869 16.52249145507812 L 14.70438289642334 16.52568054199219 C 17.83087348937988 17.03203010559082 20.69262313842773 17.27817153930664 23.45316314697266 17.27816009521484 C 26.30620193481445 17.27816009521484 29.02441215515137 17.01914024353027 31.76312255859375 16.48632049560547 C 38.51288223266602 15.17298126220703 43.6612434387207 13.04631042480469 48.45629119873047 9.590741157531738 L 48.46751403808594 9.582651138305664 L 48.4782829284668 9.57395076751709 C 51.98678970336914 6.737934112548828 55.68902587890625 2.400283098220825 56.95693588256836 0.8696232438087463 C 58.07137680053711 2.826843023300171 61.25205993652344 9.062761306762695 58.43872451782227 12.05909061431885 C 56.76304244995117 13.84376049041748 54.90226364135742 14.0726203918457 53.4683723449707 14.0726203918457 C 52.96733093261719 14.0726203918457 52.4895133972168 14.04237079620361 52.02743148803711 14.01311111450195 C 51.62012100219727 13.98732089996338 51.23540115356445 13.96297073364258 50.87853240966797 13.96297073364258 C 50.18937301635742 13.96297073364258 49.41603088378906 14.0413703918457 48.90552139282227 14.62287044525146 C 48.46139144897461 15.12877082824707 48.30817413330078 15.95043087005615 48.11419296264648 16.99070167541504 C 47.87310409545898 18.28361129760742 47.57306289672852 19.89269065856934 46.60465240478516 21.38363075256348 C 45.46499252319336 23.13823127746582 43.64683151245117 24.36008071899414 41.04628372192383 25.11898994445801 C 39.82013320922852 25.47681045532227 38.63967132568359 25.65824127197266 37.53769302368164 25.65824127197266 C 34.02241134643555 25.65824127197266 31.84442329406738 23.81853103637695 30.4031925201416 22.60116004943848 C 29.57028198242188 21.8976001739502 28.96848297119141 21.38928031921387 28.33729362487793 21.38928031921387 C 28.27507209777832 21.38928031921387 28.21304321289062 21.39444160461426 28.15292358398438 21.40462112426758 C 27.56549263000488 21.50409126281738 27.00796318054199 22.19247055053711 26.08429336547852 23.33295059204102 C 25.03389358520508 24.6298999786377 23.59532356262207 26.40613174438477 21.62232208251953 27.85324096679688 C 19.28656768798828 29.5664119720459 16.8006420135498 30.39931106567383 14.02318286895752 30.39931106567383 Z" stroke="none"/>
      <path d="M 14.02316284179688 29.89931106567383 C 20.12227249145508 29.89931106567383 23.61112213134766 25.59187126159668 25.69565200805664 23.01826095581055 C 26.69352340698242 21.7862606048584 27.29583358764648 21.04263114929199 28.06958198547363 20.91161155700684 C 28.15717315673828 20.89679145812988 28.24724197387695 20.88928031921387 28.33729362487793 20.88928031921387 C 29.15139198303223 20.88928031921387 29.84619331359863 21.47617149353027 30.72584342956543 22.21919059753418 C 32.19426345825195 23.45952987670898 34.205322265625 25.15824127197266 37.53769302368164 25.15824127197266 C 38.5922737121582 25.15824127197266 39.72560119628906 24.98355102539062 40.90621185302734 24.63901138305664 C 46.48285293579102 23.01160049438477 47.14164352416992 19.47867012023926 47.62267303466797 16.89904022216797 C 47.83071136474609 15.78335094451904 47.99504089355469 14.9021110534668 48.5297737121582 14.29301071166992 C 49.17563247680664 13.55731105804443 50.12425231933594 13.46297073364258 50.87853240966797 13.46297073364258 C 51.25121307373047 13.46297073364258 51.64360427856445 13.48781108856201 52.05903244018555 13.51411056518555 C 52.51335144042969 13.54288101196289 52.9831428527832 13.5726203918457 53.4683723449707 13.5726203918457 C 54.88430404663086 13.5726203918457 56.53879165649414 13.35214042663574 58.07421112060547 11.71685123443604 C 59.61468124389648 10.07618045806885 59.07381439208984 7.212570667266846 58.34882354736328 5.099220752716064 C 57.89859771728516 3.786815404891968 57.3200569152832 2.590394020080566 56.87363433837891 1.752433657646179 C 55.30781936645508 3.612622737884521 52.01179504394531 7.360642910003662 48.7925910949707 9.962800979614258 L 48.74861145019531 9.996380805969238 C 43.89197158813477 13.49634075164795 38.68291091918945 15.64927101135254 31.85860252380371 16.97712135314941 C 29.08806228637695 17.51613998413086 26.338623046875 17.77816009521484 23.45316314697266 17.77816009521484 C 20.66558265686035 17.77817153930664 17.7776927947998 17.52993011474609 14.62445259094238 17.01925086975098 L 14.58501243591309 17.01286125183105 L 14.54620265960693 17.00335121154785 C 11.43545246124268 16.24069023132324 7.942002773284912 14.75006103515625 4.162922859191895 12.57285118103027 C 2.973938465118408 11.88785266876221 1.95202898979187 11.24587154388428 1.163289546966553 10.72918605804443 C 1.364301443099976 12.65053272247314 1.797422051429749 15.68313503265381 2.703872680664062 18.77238082885742 C 3.569332599639893 21.72197151184082 4.687582492828369 24.13034057617188 6.027532577514648 25.93061065673828 C 7.630452632904053 28.08418083190918 9.559553146362305 29.35649108886719 11.76122283935547 29.71220016479492 C 12.52947235107422 29.8363208770752 13.29028224945068 29.89927101135254 14.0227222442627 29.89931106567383 L 14.02316284179688 29.89931106567383 M 14.02246189117432 30.8993091583252 C 13.25490665435791 30.89927101135254 12.448166847229 30.83615303039551 11.60173225402832 30.69939994812012 C 0.7842826843261719 28.95169067382812 2.708129841266782e-06 8.719250679016113 2.708129841266782e-06 8.719250679016113 C 2.708129841266782e-06 8.719250679016113 7.504222869873047 14.24727058410645 14.78432273864746 16.0321102142334 C 20.31049919128418 16.92710113525391 25.80974006652832 17.13519287109375 31.66763305664062 15.99552059173584 C 38.08576202392578 14.74671077728271 43.25787353515625 12.72069072723389 48.16396331787109 9.185100555419922 C 52.47035217285156 5.704140663146973 57.02226257324219 7.965088002492848e-07 57.02226257324219 7.965088002492848e-07 C 57.02226257324219 7.965088002492848e-07 62.4576416015625 8.509230613708496 58.8032341003418 12.40134048461914 C 56.09074783325195 15.29025554656982 52.89107131958008 14.46296787261963 50.87853622436523 14.46296691894531 C 50.17967224121094 14.46296691894531 49.62356567382812 14.56284236907959 49.28127288818359 14.95274066925049 C 47.95327377319336 16.46543121337891 49.59047317504883 23.14642143249512 41.18635177612305 25.59897041320801 C 32.95612335205078 28.00077056884766 29.95754814147949 21.8892765045166 28.33729553222656 21.88927841186523 C 28.30306243896484 21.88927841186523 28.26944160461426 21.89200592041016 28.23640251159668 21.8976001739502 C 26.76457595825195 22.14682388305664 23.06429100036621 30.89975738525391 14.02246189117432 30.8993091583252 Z" stroke="none" fill="#fc4f4f"/>
    </g>
    <g id="Tracé_4" data-name="Tracé 4" transform="translate(77.043 52.086) rotate(-107)" fill="url(#linear-gradient-2)">
      <path d="M 11.06399154663086 34.07476043701172 C 10.95605659484863 34.04335784912109 10.23572444915771 33.73423767089844 8.591042518615723 30.87948036193848 C 7.362421989440918 28.74688911437988 6.017392158508301 25.87693023681641 4.803722381591797 22.79826927185059 C 3.454392194747925 19.3754997253418 2.347582101821899 15.90475940704346 1.602942109107971 12.76124954223633 C 0.7479719519615173 9.151968955993652 0.3871023654937744 6.08879566192627 0.5300443768501282 3.65522289276123 L 0.5718021392822266 3.534329652786255 C 0.8226121664047241 2.80761981010437 0.9883021712303162 2.327529668807983 1.162482142448425 2.096559762954712 C 1.249852180480957 1.980689764022827 1.337262153625488 1.904739737510681 1.740142107009888 1.904739737510681 C 2.026552200317383 1.904739737510681 2.424342155456543 1.945239663124084 2.927972078323364 1.996519684791565 C 3.95899224281311 2.101489782333374 5.517072200775146 2.260129690170288 7.885432243347168 2.260099649429321 C 8.717041969299316 2.260079622268677 9.599202156066895 2.240249633789062 10.50742244720459 2.201159715652466 C 14.79776191711426 2.016479730606079 17.0731029510498 1.260989665985107 18.43257141113281 0.8095996975898743 C 18.97389221191406 0.6298696994781494 19.36501121520996 0.4999997019767761 19.61292266845703 0.4999997019767761 C 19.95898056030273 0.4999997019767761 20.19688987731934 0.8887572884559631 21.02436256408691 2.80912971496582 C 21.66648864746094 4.501651287078857 20.9846134185791 9.034170150756836 19.15236282348633 15.24916934967041 C 17.55071258544922 20.68193054199219 15.27042198181152 26.69556999206543 13.34305191040039 30.56963920593262 C 11.82590675354004 33.61911773681641 11.17203617095947 34.02570343017578 11.06399154663086 34.07476043701172 Z" stroke="none"/>
      <path d="M 11.0271167755127 33.45186996459961 C 11.35851287841797 33.08847045898438 12.1371021270752 32.0285758972168 13.50543212890625 29.07392883300781 C 14.74224185943604 26.40328025817871 16.08127212524414 23.00165939331055 17.27584266662598 19.49567985534668 C 18.56424140930176 15.7143497467041 19.55885124206543 12.19145965576172 20.15213203430176 9.307849884033203 C 21.00395011901855 5.167644500732422 20.7775764465332 3.578997135162354 20.56045150756836 2.99601411819458 C 20.27240753173828 2.327372074127197 19.80820846557617 1.252740740776062 19.57431793212891 1.001978754997253 C 19.38762474060059 1.019330263137817 18.99943733215332 1.148221373558044 18.59012222290039 1.284129738807678 C 17.20587158203125 1.743749737739563 14.88904190063477 2.513009786605835 10.52893257141113 2.700689792633057 C 9.613712310791016 2.740089654922485 8.724311828613281 2.760079622268677 7.885432243347168 2.760099649429321 C 5.491692066192627 2.760129690170288 3.918402194976807 2.599949598312378 2.877322196960449 2.49394965171814 C 2.38781213760376 2.444109678268433 2.001172065734863 2.404739618301392 1.740142107009888 2.404739618301392 C 1.639537572860718 2.404739618301392 1.579691171646118 2.410786151885986 1.54731023311615 2.415815591812134 C 1.428283929824829 2.585305452346802 1.233350157737732 3.150115013122559 1.04445219039917 3.697439670562744 L 1.02534008026123 3.752769470214844 C 0.7865935564041138 8.150371551513672 2.255895137786865 14.82429695129395 5.067492008209229 22.09897994995117 C 6.223172187805176 25.08914947509766 7.526162147521973 27.93787956237793 8.736442565917969 30.12042045593262 C 9.964303016662598 32.33465957641602 10.70180034637451 33.15941619873047 11.0271167755127 33.45186996459961 M 11.07525825500488 34.57804107666016 C 8.628791809082031 34.57678985595703 -0.6406028270721436 14.30522537231445 0.03512214496731758 3.556609630584717 C 1.189961194992065 0.2185258120298386 0.5143985748291016 1.760202527046204 7.885424613952637 1.760095000267029 C 8.659463882446289 1.760083675384521 9.522998809814453 1.743070602416992 10.48592185974121 1.701619744300842 C 20.61859321594238 1.265449285507202 19.32228660583496 -2.405921936035156 21.4876823425293 2.620859622955322 C 23.51963233947754 7.906129837036133 13.52056217193604 34.56937789916992 11.07682228088379 34.57804107666016 C 11.07622528076172 34.57804107666016 11.07585525512695 34.57804107666016 11.07525825500488 34.57804107666016 Z" stroke="none" fill="#ffe30b"/>
    </g>
    <g id="Ellipse_2" data-name="Ellipse 2" transform="translate(40.974 29.884)" fill="#fff" stroke="#464646" stroke-width="1">
      <circle cx="9.849" cy="9.849" r="9.849" stroke="none"/>
      <circle cx="9.849" cy="9.849" r="9.349" fill="none"/>
    </g>
    <circle id="Ellipse_3" data-name="Ellipse 3" cx="3.94" cy="3.94" r="3.94" transform="translate(48.853 34.611)"/>
    <g id="Tracé_7" data-name="Tracé 7" transform="translate(79.024 49.583) rotate(34)" fill="#ff7474">
      <path d="M 6.864322185516357 9.894843101501465 C 6.864194393157959 9.894843101501465 6.864194869995117 9.894843101501465 6.864067077636719 9.894843101501465 C 4.015367031097412 9.894533157348633 1.77135694026947 4.984763145446777 1.033957004547119 3.371372938156128 C 0.9288769364356995 3.14145302772522 0.852946937084198 2.975332975387573 0.7952969670295715 2.863763093948364 C 0.4878469705581665 2.27672290802002 0.4209469556808472 1.783012986183167 0.5951669812202454 1.393893003463745 C 0.8476774096488953 0.8299146890640259 1.545286774635315 0.5686337947845459 1.751416921615601 0.5023554563522339 C 2.144001483917236 0.5168730020523071 4.001771926879883 0.6047589182853699 5.986446857452393 1.01723301410675 C 8.820866584777832 1.606302976608276 10.63022708892822 2.574743032455444 11.21893692016602 3.817873001098633 C 11.72664356231689 4.889961719512939 11.34071922302246 6.259532928466797 10.07196044921875 7.888447284698486 C 8.988247871398926 9.219796180725098 7.909017562866211 9.894843101501465 6.864322185516357 9.894843101501465 Z" stroke="none"/>
      <path d="M 6.864316940307617 9.394843101501465 C 7.750410079956055 9.394843101501465 8.69813060760498 8.783034324645996 9.681194305419922 7.576468944549561 C 10.82142925262451 6.111063957214355 11.18679141998291 4.918672561645508 10.76720714569092 4.03221321105957 C 10.25675678253174 2.953773021697998 8.527656555175781 2.057903051376343 5.898416996002197 1.509623050689697 C 4.069524765014648 1.128241300582886 2.345228433609009 1.028303027153015 1.823576092720032 1.005662560462952 C 1.610886335372925 1.086273312568665 1.189400434494019 1.290236115455627 1.051517009735107 1.598213076591492 C 0.9164369702339172 1.899903059005737 1.077796936035156 2.325463056564331 1.236946940422058 2.629333019256592 L 1.239506959915161 2.634232997894287 C 1.302686929702759 2.756513118743896 1.380716919898987 2.927242994308472 1.488716959953308 3.163542985916138 C 1.886937022209167 4.034812927246094 2.628156900405884 5.656572818756104 3.644376993179321 7.060102939605713 C 5.041467189788818 8.989652633666992 6.166417121887207 9.394773483276367 6.864147186279297 9.394843101501465 L 6.864316940307617 9.394843101501465 M 6.864016056060791 10.3948392868042 C 3.301621913909912 10.39445877075195 0.8240640759468079 4.008626461029053 0.3510969579219818 3.093292951583862 C -0.9248730540275574 0.6570530533790588 1.687476992607117 3.025360001629451e-06 1.687476992607117 3.025360001629451e-06 C 1.687476992607117 3.025360001629451e-06 16.58050727844238 0.3526730239391327 10.46332740783691 8.199672698974609 C 9.177375793457031 9.781072616577148 7.968683242797852 10.39495754241943 6.864016056060791 10.3948392868042 Z" stroke="none" fill="#fc4f4f"/>
    </g>
    <g transform="matrix(1, 0, 0, 1, -3, 0)" filter="url(#Tracé_8)">
      <path id="Tracé_8-2" data-name="Tracé 8" d="M.158,21.842C1.789,17.871,23.238,6.2,31.718,1.224s9.892,6,9.446,18.823-6,17.163-9.446,18.991c-3.407,1.807-4.634-3.506-13.235-8.941S-1.474,25.813.158,21.842Z" transform="translate(56.76 89.8) rotate(172)" fill="#fff"/>
    </g>
  </g>
</svg>
