<svg xmlns="http://www.w3.org/2000/svg" width="73.828" height="105.93" viewBox="0 0 73.828 105.93">
  <g id="Groupe_2" data-name="Groupe 2" transform="translate(-249.649 -122.661)">
    <g id="Tracé_2" data-name="Tracé 2" transform="translate(257.168 152)" fill="#fdfbda">
      <path d="M 30.86445045471191 76.09087371826172 L 30.72080993652344 76.09067535400391 C 25.44536972045898 76.07633972167969 20.54162216186523 75.28787231445312 16.14579582214355 73.74716949462891 C 11.62755584716797 72.16355895996094 7.670702934265137 69.79152679443359 4.385142803192139 66.69699859619141 C 0.9560495615005493 63.46726226806641 -1.746123790740967 59.44295501708984 -3.646310567855835 54.7358512878418 C -5.651896953582764 49.76765060424805 -6.777497291564941 44.0006217956543 -6.991843700408936 37.594970703125 C -7.294497013092041 28.550048828125 -4.987803936004639 17.40779685974121 -0.496657133102417 6.220729351043701 C 1.639769554138184 0.8990761041641235 4.150436401367188 -4.141750335693359 6.965622901916504 -8.761723518371582 C 9.835009574890137 -13.47065734863281 12.8704891204834 -17.49264335632324 15.98776912689209 -20.71597671508789 C 18.49534225463867 -23.30885696411133 21.00074195861816 -25.3177375793457 23.43438339233398 -26.68681716918945 C 25.97299575805664 -28.11496353149414 28.42404937744141 -28.83908462524414 30.71944999694824 -28.83908462524414 C 32.6616096496582 -28.83908462524414 34.69635772705078 -28.25944328308105 36.76714324951172 -27.11627006530762 C 38.75870132446289 -26.01683044433594 40.80184936523438 -24.38763046264648 42.83983612060547 -22.27395057678223 C 46.68459701538086 -18.28639030456543 50.5373420715332 -12.52817726135254 53.98157119750977 -5.621817111968994 C 57.28792953491211 1.008076071739197 60.13314437866211 8.503556251525879 62.20962142944336 16.05428886413574 C 64.32587432861328 23.74963569641113 65.55799865722656 31.20983695983887 65.77276611328125 37.62841033935547 C 65.98450469970703 43.95611572265625 65.26846313476562 49.6649284362793 63.64450454711914 54.59623718261719 C 62.10479736328125 59.27175521850586 59.73990249633789 63.280517578125 56.61554336547852 66.51118469238281 C 50.55466461181641 72.77825927734375 41.65007781982422 76.09087371826172 30.86445045471191 76.09087371826172 Z" stroke="none"/>
      <path d="M 30.71945190429688 -28.33908843994141 C 26.35993957519531 -28.33908843994141 21.39009475708008 -25.58286285400391 16.3471794128418 -20.36839294433594 C 13.25553894042969 -17.17156219482422 10.24278259277344 -13.17897796630859 7.392581939697266 -8.501548767089844 C 4.591724395751953 -3.905078887939453 2.093509674072266 1.110893249511719 -0.03266143798828125 6.407009124755859 C -4.498504638671875 17.53105163574219 -6.792522430419922 28.6012077331543 -6.492130279541016 37.5782356262207 C -6.279750823974609 43.92522430419922 -5.166290283203125 49.63490676879883 -3.182674407958984 54.54867935180664 C -1.309703826904297 59.18833923339844 1.351810455322266 63.15316772460938 4.727951049804688 66.3330078125 C 7.962253570556641 69.37926483154297 11.85940933227539 71.71499633789062 16.31118011474609 73.27530670166016 C 20.65416717529297 74.79749298095703 25.50272369384766 75.57650756835938 30.72208023071289 75.59068298339844 L 30.86445236206055 75.59088134765625 C 41.51136779785156 75.59088134765625 50.29165267944336 72.33097839355469 56.25611114501953 66.16360473632812 C 59.3276252746582 62.98759460449219 61.65365219116211 59.04315185546875 63.16959381103516 54.43984985351562 C 64.77510833740234 49.56450653076172 65.48282623291016 43.91393661499023 65.27305603027344 37.64512252807617 C 65.0595703125 31.26513671875 63.83353805541992 23.84498023986816 61.72752380371094 16.18686485290527 C 59.65948104858398 8.666851043701172 56.82625198364258 1.202693939208984 53.53412246704102 -5.398677825927734 C 50.11229705810547 -12.2601203918457 46.28981018066406 -17.97549438476562 42.47989654541016 -21.92690277099609 C 40.47662353515625 -24.00459289550781 38.4732666015625 -25.60327911376953 36.52549743652344 -26.67855072021484 C 34.5295524597168 -27.78040313720703 32.57612609863281 -28.33908843994141 30.71945190429688 -28.33908843994141 M 30.71945190429688 -29.33908843994141 C 47.43153762817383 -29.33908843994141 65.3818359375 10.99497985839844 66.27249145507812 37.61167907714844 C 67.16313934326172 64.22837829589844 51.80150604248047 76.64839172363281 30.71945190429688 76.59068298339844 C 9.637809753417969 76.53340911865234 -6.600917816162109 64.22837829589844 -7.491573333740234 37.61167907714844 C -8.382221221923828 10.99497985839844 13.14166641235352 -29.33908843994141 30.71945190429688 -29.33908843994141 Z" stroke="none" fill="#faf7cc"/>
    </g>
    <g id="Ellipse_4" data-name="Ellipse 4" transform="translate(290.114 130)" fill="#fffff5" stroke="#fffff5" stroke-width="1">
      <circle cx="4.5" cy="4.5" r="4.5" stroke="none"/>
      <circle cx="4.5" cy="4.5" r="4" fill="none"/>
    </g>
    <g id="Ellipse_5" data-name="Ellipse 5" transform="translate(298.114 139)" fill="#fffff5" stroke="#fffff5" stroke-width="1">
      <ellipse cx="2.5" cy="2" rx="2.5" ry="2" stroke="none"/>
      <ellipse cx="2.5" cy="2" rx="2" ry="1.5" fill="none"/>
    </g>
  </g>
</svg>
